<svg width="847" xmlns="http://www.w3.org/2000/svg" height="327" id="screenshot-14c59495-3289-806c-8008-573e12e6031f" viewBox="0 0 847 327" xmlns:xlink="http://www.w3.org/1999/xlink" fill="none" version="1.1"><style>/* cyrillic-ext */
@font-face {
  font-family: 'Open Sans';
  font-style: normal;
  font-weight: 700;
  font-stretch: 100%;
  font-display: block;
  src: url(https://design.penpot.app/internal/gfonts/font/opensans/v44/memSYaGs126MiZpBA-UvWbX2vVnXBbObj2OVZyOOSr4dVJWUgsg-1x4taVIGxA.woff2) format('woff2');
  unicode-range: U+0460-052F, U+1C80-1C8A, U+20B4, U+2DE0-2DFF, U+A640-A69F, U+FE2E-FE2F;
}
/* cyrillic */
@font-face {
  font-family: 'Open Sans';
  font-style: normal;
  font-weight: 700;
  font-stretch: 100%;
  font-display: block;
  src: url(https://design.penpot.app/internal/gfonts/font/opensans/v44/memSYaGs126MiZpBA-UvWbX2vVnXBbObj2OVZyOOSr4dVJWUgsg-1x4kaVIGxA.woff2) format('woff2');
  unicode-range: U+0301, U+0400-045F, U+0490-0491, U+04B0-04B1, U+2116;
}
/* greek-ext */
@font-face {
  font-family: 'Open Sans';
  font-style: normal;
  font-weight: 700;
  font-stretch: 100%;
  font-display: block;
  src: url(https://design.penpot.app/internal/gfonts/font/opensans/v44/memSYaGs126MiZpBA-UvWbX2vVnXBbObj2OVZyOOSr4dVJWUgsg-1x4saVIGxA.woff2) format('woff2');
  unicode-range: U+1F00-1FFF;
}
/* greek */
@font-face {
  font-family: 'Open Sans';
  font-style: normal;
  font-weight: 700;
  font-stretch: 100%;
  font-display: block;
  src: url(https://design.penpot.app/internal/gfonts/font/opensans/v44/memSYaGs126MiZpBA-UvWbX2vVnXBbObj2OVZyOOSr4dVJWUgsg-1x4jaVIGxA.woff2) format('woff2');
  unicode-range: U+0370-0377, U+037A-037F, U+0384-038A, U+038C, U+038E-03A1, U+03A3-03FF;
}
/* hebrew */
@font-face {
  font-family: 'Open Sans';
  font-style: normal;
  font-weight: 700;
  font-stretch: 100%;
  font-display: block;
  src: url(https://design.penpot.app/internal/gfonts/font/opensans/v44/memSYaGs126MiZpBA-UvWbX2vVnXBbObj2OVZyOOSr4dVJWUgsg-1x4iaVIGxA.woff2) format('woff2');
  unicode-range: U+0307-0308, U+0590-05FF, U+200C-2010, U+20AA, U+25CC, U+FB1D-FB4F;
}
/* math */
@font-face {
  font-family: 'Open Sans';
  font-style: normal;
  font-weight: 700;
  font-stretch: 100%;
  font-display: block;
  src: url(https://design.penpot.app/internal/gfonts/font/opensans/v44/memSYaGs126MiZpBA-UvWbX2vVnXBbObj2OVZyOOSr4dVJWUgsg-1x5caVIGxA.woff2) format('woff2');
  unicode-range: U+0302-0303, U+0305, U+0307-0308, U+0310, U+0312, U+0315, U+031A, U+0326-0327, U+032C, U+032F-0330, U+0332-0333, U+0338, U+033A, U+0346, U+034D, U+0391-03A1, U+03A3-03A9, U+03B1-03C9, U+03D1, U+03D5-03D6, U+03F0-03F1, U+03F4-03F5, U+2016-2017, U+2034-2038, U+203C, U+2040, U+2043, U+2047, U+2050, U+2057, U+205F, U+2070-2071, U+2074-208E, U+2090-209C, U+20D0-20DC, U+20E1, U+20E5-20EF, U+2100-2112, U+2114-2115, U+2117-2121, U+2123-214F, U+2190, U+2192, U+2194-21AE, U+21B0-21E5, U+21F1-21F2, U+21F4-2211, U+2213-2214, U+2216-22FF, U+2308-230B, U+2310, U+2319, U+231C-2321, U+2336-237A, U+237C, U+2395, U+239B-23B7, U+23D0, U+23DC-23E1, U+2474-2475, U+25AF, U+25B3, U+25B7, U+25BD, U+25C1, U+25CA, U+25CC, U+25FB, U+266D-266F, U+27C0-27FF, U+2900-2AFF, U+2B0E-2B11, U+2B30-2B4C, U+2BFE, U+3030, U+FF5B, U+FF5D, U+1D400-1D7FF, U+1EE00-1EEFF;
}
/* symbols */
@font-face {
  font-family: 'Open Sans';
  font-style: normal;
  font-weight: 700;
  font-stretch: 100%;
  font-display: block;
  src: url(https://design.penpot.app/internal/gfonts/font/opensans/v44/memSYaGs126MiZpBA-UvWbX2vVnXBbObj2OVZyOOSr4dVJWUgsg-1x5OaVIGxA.woff2) format('woff2');
  unicode-range: U+0001-000C, U+000E-001F, U+007F-009F, U+20DD-20E0, U+20E2-20E4, U+2150-218F, U+2190, U+2192, U+2194-2199, U+21AF, U+21E6-21F0, U+21F3, U+2218-2219, U+2299, U+22C4-22C6, U+2300-243F, U+2440-244A, U+2460-24FF, U+25A0-27BF, U+2800-28FF, U+2921-2922, U+2981, U+29BF, U+29EB, U+2B00-2BFF, U+4DC0-4DFF, U+FFF9-FFFB, U+10140-1018E, U+10190-1019C, U+101A0, U+101D0-101FD, U+102E0-102FB, U+10E60-10E7E, U+1D2C0-1D2D3, U+1D2E0-1D37F, U+1F000-1F0FF, U+1F100-1F1AD, U+1F1E6-1F1FF, U+1F30D-1F30F, U+1F315, U+1F31C, U+1F31E, U+1F320-1F32C, U+1F336, U+1F378, U+1F37D, U+1F382, U+1F393-1F39F, U+1F3A7-1F3A8, U+1F3AC-1F3AF, U+1F3C2, U+1F3C4-1F3C6, U+1F3CA-1F3CE, U+1F3D4-1F3E0, U+1F3ED, U+1F3F1-1F3F3, U+1F3F5-1F3F7, U+1F408, U+1F415, U+1F41F, U+1F426, U+1F43F, U+1F441-1F442, U+1F444, U+1F446-1F449, U+1F44C-1F44E, U+1F453, U+1F46A, U+1F47D, U+1F4A3, U+1F4B0, U+1F4B3, U+1F4B9, U+1F4BB, U+1F4BF, U+1F4C8-1F4CB, U+1F4D6, U+1F4DA, U+1F4DF, U+1F4E3-1F4E6, U+1F4EA-1F4ED, U+1F4F7, U+1F4F9-1F4FB, U+1F4FD-1F4FE, U+1F503, U+1F507-1F50B, U+1F50D, U+1F512-1F513, U+1F53E-1F54A, U+1F54F-1F5FA, U+1F610, U+1F650-1F67F, U+1F687, U+1F68D, U+1F691, U+1F694, U+1F698, U+1F6AD, U+1F6B2, U+1F6B9-1F6BA, U+1F6BC, U+1F6C6-1F6CF, U+1F6D3-1F6D7, U+1F6E0-1F6EA, U+1F6F0-1F6F3, U+1F6F7-1F6FC, U+1F700-1F7FF, U+1F800-1F80B, U+1F810-1F847, U+1F850-1F859, U+1F860-1F887, U+1F890-1F8AD, U+1F8B0-1F8BB, U+1F8C0-1F8C1, U+1F900-1F90B, U+1F93B, U+1F946, U+1F984, U+1F996, U+1F9E9, U+1FA00-1FA6F, U+1FA70-1FA7C, U+1FA80-1FA89, U+1FA8F-1FAC6, U+1FACE-1FADC, U+1FADF-1FAE9, U+1FAF0-1FAF8, U+1FB00-1FBFF;
}
/* vietnamese */
@font-face {
  font-family: 'Open Sans';
  font-style: normal;
  font-weight: 700;
  font-stretch: 100%;
  font-display: block;
  src: url(https://design.penpot.app/internal/gfonts/font/opensans/v44/memSYaGs126MiZpBA-UvWbX2vVnXBbObj2OVZyOOSr4dVJWUgsg-1x4vaVIGxA.woff2) format('woff2');
  unicode-range: U+0102-0103, U+0110-0111, U+0128-0129, U+0168-0169, U+01A0-01A1, U+01AF-01B0, U+0300-0301, U+0303-0304, U+0308-0309, U+0323, U+0329, U+1EA0-1EF9, U+20AB;
}
/* latin-ext */
@font-face {
  font-family: 'Open Sans';
  font-style: normal;
  font-weight: 700;
  font-stretch: 100%;
  font-display: block;
  src: url(https://design.penpot.app/internal/gfonts/font/opensans/v44/memSYaGs126MiZpBA-UvWbX2vVnXBbObj2OVZyOOSr4dVJWUgsg-1x4uaVIGxA.woff2) format('woff2');
  unicode-range: U+0100-02BA, U+02BD-02C5, U+02C7-02CC, U+02CE-02D7, U+02DD-02FF, U+0304, U+0308, U+0329, U+1D00-1DBF, U+1E00-1E9F, U+1EF2-1EFF, U+2020, U+20A0-20AB, U+20AD-20C0, U+2113, U+2C60-2C7F, U+A720-A7FF;
}
/* latin */
@font-face {
  font-family: 'Open Sans';
  font-style: normal;
  font-weight: 700;
  font-stretch: 100%;
  font-display: block;
  src: url(https://design.penpot.app/internal/gfonts/font/opensans/v44/memSYaGs126MiZpBA-UvWbX2vVnXBbObj2OVZyOOSr4dVJWUgsg-1x4gaVI.woff2) format('woff2');
  unicode-range: U+0000-00FF, U+0131, U+0152-0153, U+02BB-02BC, U+02C6, U+02DA, U+02DC, U+0304, U+0308, U+0329, U+2000-206F, U+20AC, U+2122, U+2191, U+2193, U+2212, U+2215, U+FEFF, U+FFFD;
}

/* cyrillic-ext */
@font-face {
  font-family: 'Open Sans';
  font-style: italic;
  font-weight: 700;
  font-stretch: 100%;
  font-display: block;
  src: url(https://design.penpot.app/internal/gfonts/font/opensans/v44/memQYaGs126MiZpBA-UFUIcVXSCEkx2cmqvXlWq8tWZ0Pw86hd0RkyFjWV0ewJER.woff2) format('woff2');
  unicode-range: U+0460-052F, U+1C80-1C8A, U+20B4, U+2DE0-2DFF, U+A640-A69F, U+FE2E-FE2F;
}
/* cyrillic */
@font-face {
  font-family: 'Open Sans';
  font-style: italic;
  font-weight: 700;
  font-stretch: 100%;
  font-display: block;
  src: url(https://design.penpot.app/internal/gfonts/font/opensans/v44/memQYaGs126MiZpBA-UFUIcVXSCEkx2cmqvXlWq8tWZ0Pw86hd0RkyFjWVQewJER.woff2) format('woff2');
  unicode-range: U+0301, U+0400-045F, U+0490-0491, U+04B0-04B1, U+2116;
}
/* greek-ext */
@font-face {
  font-family: 'Open Sans';
  font-style: italic;
  font-weight: 700;
  font-stretch: 100%;
  font-display: block;
  src: url(https://design.penpot.app/internal/gfonts/font/opensans/v44/memQYaGs126MiZpBA-UFUIcVXSCEkx2cmqvXlWq8tWZ0Pw86hd0RkyFjWVwewJER.woff2) format('woff2');
  unicode-range: U+1F00-1FFF;
}
/* greek */
@font-face {
  font-family: 'Open Sans';
  font-style: italic;
  font-weight: 700;
  font-stretch: 100%;
  font-display: block;
  src: url(https://design.penpot.app/internal/gfonts/font/opensans/v44/memQYaGs126MiZpBA-UFUIcVXSCEkx2cmqvXlWq8tWZ0Pw86hd0RkyFjWVMewJER.woff2) format('woff2');
  unicode-range: U+0370-0377, U+037A-037F, U+0384-038A, U+038C, U+038E-03A1, U+03A3-03FF;
}
/* hebrew */
@font-face {
  font-family: 'Open Sans';
  font-style: italic;
  font-weight: 700;
  font-stretch: 100%;
  font-display: block;
  src: url(https://design.penpot.app/internal/gfonts/font/opensans/v44/memQYaGs126MiZpBA-UFUIcVXSCEkx2cmqvXlWq8tWZ0Pw86hd0RkyFjWVIewJER.woff2) format('woff2');
  unicode-range: U+0307-0308, U+0590-05FF, U+200C-2010, U+20AA, U+25CC, U+FB1D-FB4F;
}
/* math */
@font-face {
  font-family: 'Open Sans';
  font-style: italic;
  font-weight: 700;
  font-stretch: 100%;
  font-display: block;
  src: url(https://design.penpot.app/internal/gfonts/font/opensans/v44/memQYaGs126MiZpBA-UFUIcVXSCEkx2cmqvXlWq8tWZ0Pw86hd0RkyFjWSwewJER.woff2) format('woff2');
  unicode-range: U+0302-0303, U+0305, U+0307-0308, U+0310, U+0312, U+0315, U+031A, U+0326-0327, U+032C, U+032F-0330, U+0332-0333, U+0338, U+033A, U+0346, U+034D, U+0391-03A1, U+03A3-03A9, U+03B1-03C9, U+03D1, U+03D5-03D6, U+03F0-03F1, U+03F4-03F5, U+2016-2017, U+2034-2038, U+203C, U+2040, U+2043, U+2047, U+2050, U+2057, U+205F, U+2070-2071, U+2074-208E, U+2090-209C, U+20D0-20DC, U+20E1, U+20E5-20EF, U+2100-2112, U+2114-2115, U+2117-2121, U+2123-214F, U+2190, U+2192, U+2194-21AE, U+21B0-21E5, U+21F1-21F2, U+21F4-2211, U+2213-2214, U+2216-22FF, U+2308-230B, U+2310, U+2319, U+231C-2321, U+2336-237A, U+237C, U+2395, U+239B-23B7, U+23D0, U+23DC-23E1, U+2474-2475, U+25AF, U+25B3, U+25B7, U+25BD, U+25C1, U+25CA, U+25CC, U+25FB, U+266D-266F, U+27C0-27FF, U+2900-2AFF, U+2B0E-2B11, U+2B30-2B4C, U+2BFE, U+3030, U+FF5B, U+FF5D, U+1D400-1D7FF, U+1EE00-1EEFF;
}
/* symbols */
@font-face {
  font-family: 'Open Sans';
  font-style: italic;
  font-weight: 700;
  font-stretch: 100%;
  font-display: block;
  src: url(https://design.penpot.app/internal/gfonts/font/opensans/v44/memQYaGs126MiZpBA-UFUIcVXSCEkx2cmqvXlWq8tWZ0Pw86hd0RkyFjWT4ewJER.woff2) format('woff2');
  unicode-range: U+0001-000C, U+000E-001F, U+007F-009F, U+20DD-20E0, U+20E2-20E4, U+2150-218F, U+2190, U+2192, U+2194-2199, U+21AF, U+21E6-21F0, U+21F3, U+2218-2219, U+2299, U+22C4-22C6, U+2300-243F, U+2440-244A, U+2460-24FF, U+25A0-27BF, U+2800-28FF, U+2921-2922, U+2981, U+29BF, U+29EB, U+2B00-2BFF, U+4DC0-4DFF, U+FFF9-FFFB, U+10140-1018E, U+10190-1019C, U+101A0, U+101D0-101FD, U+102E0-102FB, U+10E60-10E7E, U+1D2C0-1D2D3, U+1D2E0-1D37F, U+1F000-1F0FF, U+1F100-1F1AD, U+1F1E6-1F1FF, U+1F30D-1F30F, U+1F315, U+1F31C, U+1F31E, U+1F320-1F32C, U+1F336, U+1F378, U+1F37D, U+1F382, U+1F393-1F39F, U+1F3A7-1F3A8, U+1F3AC-1F3AF, U+1F3C2, U+1F3C4-1F3C6, U+1F3CA-1F3CE, U+1F3D4-1F3E0, U+1F3ED, U+1F3F1-1F3F3, U+1F3F5-1F3F7, U+1F408, U+1F415, U+1F41F, U+1F426, U+1F43F, U+1F441-1F442, U+1F444, U+1F446-1F449, U+1F44C-1F44E, U+1F453, U+1F46A, U+1F47D, U+1F4A3, U+1F4B0, U+1F4B3, U+1F4B9, U+1F4BB, U+1F4BF, U+1F4C8-1F4CB, U+1F4D6, U+1F4DA, U+1F4DF, U+1F4E3-1F4E6, U+1F4EA-1F4ED, U+1F4F7, U+1F4F9-1F4FB, U+1F4FD-1F4FE, U+1F503, U+1F507-1F50B, U+1F50D, U+1F512-1F513, U+1F53E-1F54A, U+1F54F-1F5FA, U+1F610, U+1F650-1F67F, U+1F687, U+1F68D, U+1F691, U+1F694, U+1F698, U+1F6AD, U+1F6B2, U+1F6B9-1F6BA, U+1F6BC, U+1F6C6-1F6CF, U+1F6D3-1F6D7, U+1F6E0-1F6EA, U+1F6F0-1F6F3, U+1F6F7-1F6FC, U+1F700-1F7FF, U+1F800-1F80B, U+1F810-1F847, U+1F850-1F859, U+1F860-1F887, U+1F890-1F8AD, U+1F8B0-1F8BB, U+1F8C0-1F8C1, U+1F900-1F90B, U+1F93B, U+1F946, U+1F984, U+1F996, U+1F9E9, U+1FA00-1FA6F, U+1FA70-1FA7C, U+1FA80-1FA89, U+1FA8F-1FAC6, U+1FACE-1FADC, U+1FADF-1FAE9, U+1FAF0-1FAF8, U+1FB00-1FBFF;
}
/* vietnamese */
@font-face {
  font-family: 'Open Sans';
  font-style: italic;
  font-weight: 700;
  font-stretch: 100%;
  font-display: block;
  src: url(https://design.penpot.app/internal/gfonts/font/opensans/v44/memQYaGs126MiZpBA-UFUIcVXSCEkx2cmqvXlWq8tWZ0Pw86hd0RkyFjWV8ewJER.woff2) format('woff2');
  unicode-range: U+0102-0103, U+0110-0111, U+0128-0129, U+0168-0169, U+01A0-01A1, U+01AF-01B0, U+0300-0301, U+0303-0304, U+0308-0309, U+0323, U+0329, U+1EA0-1EF9, U+20AB;
}
/* latin-ext */
@font-face {
  font-family: 'Open Sans';
  font-style: italic;
  font-weight: 700;
  font-stretch: 100%;
  font-display: block;
  src: url(https://design.penpot.app/internal/gfonts/font/opensans/v44/memQYaGs126MiZpBA-UFUIcVXSCEkx2cmqvXlWq8tWZ0Pw86hd0RkyFjWV4ewJER.woff2) format('woff2');
  unicode-range: U+0100-02BA, U+02BD-02C5, U+02C7-02CC, U+02CE-02D7, U+02DD-02FF, U+0304, U+0308, U+0329, U+1D00-1DBF, U+1E00-1E9F, U+1EF2-1EFF, U+2020, U+20A0-20AB, U+20AD-20C0, U+2113, U+2C60-2C7F, U+A720-A7FF;
}
/* latin */
@font-face {
  font-family: 'Open Sans';
  font-style: italic;
  font-weight: 700;
  font-stretch: 100%;
  font-display: block;
  src: url(https://design.penpot.app/internal/gfonts/font/opensans/v44/memQYaGs126MiZpBA-UFUIcVXSCEkx2cmqvXlWq8tWZ0Pw86hd0RkyFjWVAewA.woff2) format('woff2');
  unicode-range: U+0000-00FF, U+0131, U+0152-0153, U+02BB-02BC, U+02C6, U+02DA, U+02DC, U+0304, U+0308, U+0329, U+2000-206F, U+20AC, U+2122, U+2191, U+2193, U+2212, U+2215, U+FEFF, U+FFFD;
}
</style><g id="shape-14c59495-3289-806c-8008-573e12e6031f"><defs><clipPath id="frame-clip-14c59495-3289-806c-8008-573e12e6031f-render-1" class="frame-clip frame-clip-def"><rect rx="0" ry="0" x="0" y="0" width="847" height="327" transform="matrix(1.000000, 0.000000, 0.000000, 1.000000, 0.000000, 0.000000)"/></clipPath></defs><g class="frame-container-wrapper"><g class="frame-container-blur"><g class="frame-container-shadows"><g clip-path="url(#frame-clip-14c59495-3289-806c-8008-573e12e6031f-render-1)" fill="none"><g class="fills" id="fills-14c59495-3289-806c-8008-573e12e6031f"><rect rx="0" ry="0" x="0" y="0" width="847" height="327" transform="matrix(1.000000, 0.000000, 0.000000, 1.000000, 0.000000, 0.000000)" class="frame-background"/></g><g class="frame-children"><g id="shape-d37d9436-7bcf-807a-8008-5c341f0676ac"><g class="fills" id="fills-d37d9436-7bcf-807a-8008-5c341f0676ac"><path d="M44,127C44,127,95.4664306640625,65.66265869140625,196,66C294.1331787109375,66.32928466796875,336,123,336,123"/></g><g id="strokes-7cfa18bd-02df-8097-8008-5c3ab296aabf-d37d9436-7bcf-807a-8008-5c341f0676ac" class="strokes"><g class="stroke-shape"><defs><marker refX="2" fill-opacity="1" orient="auto-start-reverse" id="marker-render-2-triangle-arrow" viewBox="0 0 3 6" fill="#000000" refY="3" markerWidth="8.5" markerHeight="8.5"><path d="M 0 0 L 3 3 L 0 6 z"/></marker></defs><path d="M44,127C44,127,95.4664306640625,65.66265869140625,196,66C294.1331787109375,66.32928466796875,336,123,336,123" style="fill: none; stroke-width: 3; stroke: rgb(0, 0, 0); stroke-opacity: 1; marker-end: url(&quot;#marker-render-2-triangle-arrow&quot;);"/></g></g></g><g id="shape-14c59495-3289-806c-8008-573e654e5709" style="display: none;"><g class="fills" id="fills-14c59495-3289-806c-8008-573e654e5709"><rect width="409.72399999999993" height="572.1519999999999" x="272.0000000000002" transform="matrix(1.000000, 0.000000, 0.000000, 1.000000, 0.000000, 0.000000)" stroke-miterlimit="10" style="fill: none;" ry="0" fill="none" stroke-linecap="square" rx="0" y="243.0000000000001"/></g></g><g id="shape-14c59495-3289-806c-8008-573e6550e160"><g class="fills" id="fills-14c59495-3289-806c-8008-573e6550e160"><path d="M8.0001220703125,165.4461669921875L8.0001220703125,165.4461669921875C8.0001220703125,143.5025634765625,25.788818359375,125.7137451171875,47.732421875,125.7137451171875L47.732421875,125.7137451171875C58.27001953125,125.7137451171875,68.3760986328125,129.89990234375,75.827392578125,137.3511962890625C83.278564453125,144.8023681640625,87.464599609375,154.908447265625,87.464599609375,165.4461669921875L87.464599609375,165.4461669921875C87.464599609375,187.3896484375,69.6759033203125,205.1783447265625,47.732421875,205.1783447265625L47.732421875,205.1783447265625C25.788818359375,205.1783447265625,8.0001220703125,187.3896484375,8.0001220703125,165.4461669921875L8.0001220703125,165.4461669921875" fill="none" stroke-linecap="square" stroke-miterlimit="10" style="fill: none;"/></g></g><g id="shape-14c59495-3289-806c-8008-573e65514cf3"><g class="fills" id="fills-14c59495-3289-806c-8008-573e65514cf3"><path d="M8.0001220703125,165.4461669921875L8.0001220703125,165.4461669921875C8.0001220703125,143.5025634765625,25.788818359375,125.7137451171875,47.732421875,125.7137451171875L47.732421875,125.7137451171875C58.27001953125,125.7137451171875,68.3760986328125,129.89990234375,75.827392578125,137.3511962890625C83.278564453125,144.8023681640625,87.464599609375,154.908447265625,87.464599609375,165.4461669921875L87.464599609375,165.4461669921875C87.464599609375,187.3896484375,69.6759033203125,205.1783447265625,47.732421875,205.1783447265625L47.732421875,205.1783447265625C25.788818359375,205.1783447265625,8.0001220703125,187.3896484375,8.0001220703125,165.4461669921875L8.0001220703125,165.4461669921875" fill="none" stroke-linecap="butt" stroke-miterlimit="10" stroke-linejoin="round" style="fill: none;"/></g><g fill="none" stroke-linecap="butt" stroke-miterlimit="10" stroke-linejoin="round" id="strokes-7cfa18bd-02df-8097-8008-5c3ab29898c7-14c59495-3289-806c-8008-573e65514cf3" class="strokes"><g class="inner-stroke-shape"><defs><clipPath id="inner-stroke-render-5-14c59495-3289-806c-8008-573e65514cf3-0"><use href="#stroke-shape-render-5-14c59495-3289-806c-8008-573e65514cf3-0"/></clipPath><path d="M8.0001220703125,165.4461669921875L8.0001220703125,165.4461669921875C8.0001220703125,143.5025634765625,25.788818359375,125.7137451171875,47.732421875,125.7137451171875L47.732421875,125.7137451171875C58.27001953125,125.7137451171875,68.3760986328125,129.89990234375,75.827392578125,137.3511962890625C83.278564453125,144.8023681640625,87.464599609375,154.908447265625,87.464599609375,165.4461669921875L87.464599609375,165.4461669921875C87.464599609375,187.3896484375,69.6759033203125,205.1783447265625,47.732421875,205.1783447265625L47.732421875,205.1783447265625C25.788818359375,205.1783447265625,8.0001220703125,187.3896484375,8.0001220703125,165.4461669921875L8.0001220703125,165.4461669921875" id="stroke-shape-render-5-14c59495-3289-806c-8008-573e65514cf3-0" style="fill: none; stroke-width: 8; stroke: rgb(0, 0, 0);"/></defs><use href="#stroke-shape-render-5-14c59495-3289-806c-8008-573e65514cf3-0" clip-path="url('#inner-stroke-render-5-14c59495-3289-806c-8008-573e65514cf3-0')"/></g></g></g><g id="shape-14c59495-3289-806c-8008-573e6551c350"><g class="fills" id="fills-14c59495-3289-806c-8008-573e6551c350"><path d="M37.013671875,177.1661376953125L45.810546875,154.2598876953125L49.076171875,154.2598876953125L58.451171875,177.1661376953125L54.998046875,177.1661376953125L52.326171875,170.2286376953125L42.748046875,170.2286376953125L40.232421875,177.1661376953125L37.013671875,177.1661376953125ZM43.623046875,167.7598876953125L51.388671875,167.7598876953125L48.998046875,161.4161376953125C48.268798828125,159.489013671875,47.7271728515625,157.9056396484375,47.373046875,156.6661376953125C47.081298828125,158.1348876953125,46.669921875,159.5931396484375,46.138671875,161.0411376953125L43.623046875,167.7598876953125Z" stroke-linecap="square" stroke-miterlimit="10" style="fill: rgb(0, 0, 0); fill-opacity: 1;"/></g></g><g id="shape-14c59495-3289-806c-8008-573e65521645"><g class="fills" id="fills-14c59495-3289-806c-8008-573e65521645"><path d="M302.352294921875,165.4461669921875L302.352294921875,165.4461669921875C302.352294921875,143.5025634765625,320.140869140625,125.7137451171875,342.084716796875,125.7137451171875L342.084716796875,125.7137451171875C352.622314453125,125.7137451171875,362.728271484375,129.89990234375,370.179443359375,137.3511962890625C377.630859375,144.8023681640625,381.81689453125,154.908447265625,381.81689453125,165.4461669921875L381.81689453125,165.4461669921875C381.81689453125,187.3896484375,364.028076171875,205.1783447265625,342.084716796875,205.1783447265625L342.084716796875,205.1783447265625C320.140869140625,205.1783447265625,302.352294921875,187.3896484375,302.352294921875,165.4461669921875L302.352294921875,165.4461669921875" fill="none" stroke-linecap="square" stroke-miterlimit="10" style="fill: none;"/></g></g><g id="shape-14c59495-3289-806c-8008-573e6553128c"><g class="fills" id="fills-14c59495-3289-806c-8008-573e6553128c"><path d="M333.756591796875,177.1661376953125L333.756591796875,154.2598876953125L342.350341796875,154.2598876953125C344.100341796875,154.2598876953125,345.501220703125,154.4942626953125,346.553466796875,154.9630126953125C347.615966796875,155.4212646484375,348.444091796875,156.1348876953125,349.037841796875,157.1036376953125C349.641845703125,158.0618896484375,349.944091796875,159.067138671875,349.944091796875,160.1192626953125C349.944091796875,161.098388671875,349.678466796875,162.020263671875,349.147216796875,162.8848876953125C348.615966796875,163.7493896484375,347.813720703125,164.4473876953125,346.740966796875,164.9786376953125C348.126220703125,165.3848876953125,349.188720703125,166.0775146484375,349.928466796875,167.0567626953125C350.678466796875,168.035888671875,351.053466796875,169.192138671875,351.053466796875,170.5255126953125C351.053466796875,171.598388671875,350.82421875,172.598388671875,350.365966796875,173.5255126953125C349.91796875,174.442138671875,349.360595703125,175.1505126953125,348.694091796875,175.6505126953125C348.02734375,176.1505126953125,347.188720703125,176.5306396484375,346.178466796875,176.7911376953125C345.178466796875,177.0411376953125,343.94921875,177.1661376953125,342.490966796875,177.1661376953125L333.756591796875,177.1661376953125ZM336.787841796875,163.8848876953125L341.740966796875,163.8848876953125C343.084716796875,163.8848876953125,344.048095703125,163.7962646484375,344.631591796875,163.6192626953125C345.40234375,163.3900146484375,345.98046875,163.0098876953125,346.365966796875,162.4786376953125C346.76171875,161.9473876953125,346.959716796875,161.2806396484375,346.959716796875,160.4786376953125C346.959716796875,159.7181396484375,346.77734375,159.051513671875,346.412841796875,158.4786376953125C346.048095703125,157.895263671875,345.52734375,157.4993896484375,344.850341796875,157.2911376953125C344.173095703125,157.0723876953125,343.01171875,156.9630126953125,341.365966796875,156.9630126953125L336.787841796875,156.9630126953125L336.787841796875,163.8848876953125ZM336.787841796875,174.4630126953125L342.490966796875,174.4630126953125C343.469970703125,174.4630126953125,344.157470703125,174.426513671875,344.553466796875,174.3536376953125C345.251220703125,174.2286376953125,345.834716796875,174.020263671875,346.303466796875,173.7286376953125C346.772216796875,173.4368896484375,347.157470703125,173.0150146484375,347.459716796875,172.4630126953125C347.76171875,171.9005126953125,347.912841796875,171.254638671875,347.912841796875,170.5255126953125C347.912841796875,169.6712646484375,347.694091796875,168.9317626953125,347.256591796875,168.3067626953125C346.819091796875,167.6712646484375,346.209716796875,167.2286376953125,345.428466796875,166.9786376953125C344.657470703125,166.7181396484375,343.54296875,166.5880126953125,342.084716796875,166.5880126953125L336.787841796875,166.5880126953125L336.787841796875,174.4630126953125Z" stroke-linecap="square" stroke-miterlimit="10" style="fill: rgb(0, 0, 0); fill-opacity: 1;"/></g></g><g id="shape-14c59495-3289-806c-8008-573e655dd9cb" style="display: none;"><g class="fills" id="fills-14c59495-3289-806c-8008-573e655dd9cb"><path d="M424.4478759765625,673.834228515625L424.4478759765625,660.240478515625L428.8697509765625,660.240478515625C430.536376953125,660.240478515625,431.625,660.30810546875,432.1353759765625,660.443603515625C432.90625,660.6414794921875,433.552001953125,661.084228515625,434.0728759765625,661.771728515625C434.6041259765625,662.44873046875,434.8697509765625,663.3289794921875,434.8697509765625,664.412353515625C434.8697509765625,665.24560546875,434.71875,665.94873046875,434.4166259765625,666.521728515625C434.114501953125,667.0946044921875,433.7291259765625,667.54248046875,433.2603759765625,667.865478515625C432.7916259765625,668.1883544921875,432.317626953125,668.40185546875,431.8385009765625,668.506103515625C431.1822509765625,668.6414794921875,430.234375,668.709228515625,428.9947509765625,668.709228515625L427.1978759765625,668.709228515625L427.1978759765625,673.834228515625L424.4478759765625,673.834228515625ZM427.1978759765625,662.537353515625L427.1978759765625,666.396728515625L428.6978759765625,666.396728515625C429.78125,666.396728515625,430.505126953125,666.32373046875,430.8697509765625,666.177978515625C431.234375,666.0321044921875,431.520751953125,665.80810546875,431.7291259765625,665.506103515625C431.9375,665.2039794921875,432.0416259765625,664.85498046875,432.0416259765625,664.459228515625C432.0416259765625,663.959228515625,431.895751953125,663.5477294921875,431.6041259765625,663.224853515625C431.3125,662.90185546875,430.9478759765625,662.7039794921875,430.5103759765625,662.631103515625C430.177001953125,662.568603515625,429.515625,662.537353515625,428.5260009765625,662.537353515625L427.1978759765625,662.537353515625ZM436.2821044921875,668.771728515625C436.2821044921875,667.9071044921875,436.49560546875,667.068603515625,436.9227294921875,666.256103515625C437.349853515625,665.443603515625,437.9539794921875,664.82373046875,438.7352294921875,664.396728515625C439.5164794921875,663.9696044921875,440.38623046875,663.756103515625,441.3446044921875,663.756103515625C442.8446044921875,663.756103515625,444.068603515625,664.240478515625,445.0164794921875,665.209228515625C445.96435546875,666.177978515625,446.4383544921875,667.40185546875,446.4383544921875,668.881103515625C446.4383544921875,670.37060546875,445.959228515625,671.60498046875,445.0008544921875,672.584228515625C444.04248046875,673.5633544921875,442.834228515625,674.052978515625,441.3758544921875,674.052978515625C440.4696044921875,674.052978515625,439.60498046875,673.849853515625,438.7821044921875,673.443603515625C437.9696044921875,673.037353515625,437.349853515625,672.4383544921875,436.9227294921875,671.646728515625C436.49560546875,670.85498046875,436.2821044921875,669.896728515625,436.2821044921875,668.771728515625ZM438.9539794921875,668.912353515625C438.9539794921875,669.8914794921875,439.18310546875,670.6414794921875,439.6414794921875,671.162353515625C440.1102294921875,671.6727294921875,440.68310546875,671.927978515625,441.3602294921875,671.927978515625C442.037353515625,671.927978515625,442.60498046875,671.6727294921875,443.0633544921875,671.162353515625C443.5321044921875,670.6414794921875,443.7664794921875,669.88623046875,443.7664794921875,668.896728515625C443.7664794921875,667.927978515625,443.5321044921875,667.18310546875,443.0633544921875,666.662353515625C442.60498046875,666.1414794921875,442.037353515625,665.881103515625,441.3602294921875,665.881103515625C440.68310546875,665.881103515625,440.1102294921875,666.1414794921875,439.6414794921875,666.662353515625C439.18310546875,667.18310546875,438.9539794921875,667.93310546875,438.9539794921875,668.912353515625ZM448.2718505859375,673.834228515625L448.2718505859375,660.240478515625L450.8812255859375,660.240478515625L450.8812255859375,673.834228515625L448.2718505859375,673.834228515625ZM453.455078125,662.646728515625L453.455078125,660.240478515625L456.064453125,660.240478515625L456.064453125,662.646728515625L453.455078125,662.646728515625ZM453.455078125,673.834228515625L453.455078125,663.974853515625L456.064453125,663.974853515625L456.064453125,673.834228515625L453.455078125,673.834228515625ZM463.154052734375,663.974853515625L463.154052734375,666.052978515625L461.372802734375,666.052978515625L461.372802734375,670.037353515625C461.372802734375,670.83935546875,461.388427734375,671.30810546875,461.419677734375,671.443603515625C461.4613037109375,671.568603515625,461.5394287109375,671.677978515625,461.654052734375,671.771728515625C461.779052734375,671.85498046875,461.9300537109375,671.896728515625,462.107177734375,671.896728515625C462.3468017578125,671.896728515625,462.6956787109375,671.8133544921875,463.154052734375,671.646728515625L463.372802734375,673.662353515625C462.7686767578125,673.9227294921875,462.0811767578125,674.052978515625,461.310302734375,674.052978515625C460.841552734375,674.052978515625,460.419677734375,673.974853515625,460.044677734375,673.818603515625C459.669677734375,673.662353515625,459.3936767578125,673.459228515625,459.216552734375,673.209228515625C459.0394287109375,672.959228515625,458.9144287109375,672.62060546875,458.841552734375,672.193603515625C458.7894287109375,671.8914794921875,458.763427734375,671.27685546875,458.763427734375,670.349853515625L458.763427734375,666.052978515625L457.560302734375,666.052978515625L457.560302734375,663.974853515625L458.763427734375,663.974853515625L458.763427734375,662.021728515625L461.372802734375,660.506103515625L461.372802734375,663.974853515625L463.154052734375,663.974853515625ZM464.85107421875,662.646728515625L464.85107421875,660.240478515625L467.46044921875,660.240478515625L467.46044921875,662.646728515625L464.85107421875,662.646728515625ZM464.85107421875,673.834228515625L464.85107421875,663.974853515625L467.46044921875,663.974853515625L467.46044921875,673.834228515625L464.85107421875,673.834228515625ZM478.628173828125,666.896728515625L476.065673828125,667.365478515625C475.971923828125,666.8446044921875,475.77392578125,666.4539794921875,475.471923828125,666.193603515625C475.1697998046875,665.93310546875,474.77392578125,665.802978515625,474.284423828125,665.802978515625C473.628173828125,665.802978515625,473.1072998046875,666.02685546875,472.721923828125,666.474853515625C472.33642578125,666.9227294921875,472.143798828125,667.6727294921875,472.143798828125,668.724853515625C472.143798828125,669.90185546875,472.33642578125,670.72998046875,472.721923828125,671.209228515625C473.11767578125,671.6883544921875,473.64892578125,671.927978515625,474.315673828125,671.927978515625C474.815673828125,671.927978515625,475.221923828125,671.787353515625,475.534423828125,671.506103515625C475.846923828125,671.224853515625,476.07080078125,670.740478515625,476.206298828125,670.052978515625L478.753173828125,670.490478515625C478.49267578125,671.66748046875,477.9822998046875,672.55810546875,477.221923828125,673.162353515625C476.471923828125,673.756103515625,475.46142578125,674.052978515625,474.190673828125,674.052978515625C472.753173828125,674.052978515625,471.60205078125,673.599853515625,470.737548828125,672.693603515625C469.88330078125,671.787353515625,469.456298828125,670.52685546875,469.456298828125,668.912353515625C469.456298828125,667.287353515625,469.8885498046875,666.021728515625,470.753173828125,665.115478515625C471.61767578125,664.209228515625,472.7791748046875,663.756103515625,474.237548828125,663.756103515625C475.4354248046875,663.756103515625,476.3885498046875,664.0164794921875,477.096923828125,664.537353515625C477.80517578125,665.0477294921875,478.315673828125,665.834228515625,478.628173828125,666.896728515625ZM482.36328125,666.990478515625L480.00390625,666.552978515625C480.2642822265625,665.60498046875,480.7174072265625,664.90185546875,481.36328125,664.443603515625C482.01953125,663.9852294921875,482.98828125,663.756103515625,484.26953125,663.756103515625C485.42578125,663.756103515625,486.290283203125,663.896728515625,486.86328125,664.177978515625C487.4361572265625,664.44873046875,487.837158203125,664.7977294921875,488.06640625,665.224853515625C488.2955322265625,665.6414794921875,488.41015625,666.41748046875,488.41015625,667.552978515625L488.37890625,670.599853515625C488.37890625,671.46435546875,488.4205322265625,672.10498046875,488.50390625,672.521728515625C488.587158203125,672.927978515625,488.743408203125,673.365478515625,488.97265625,673.834228515625L486.39453125,673.834228515625C486.33203125,673.6571044921875,486.2486572265625,673.40185546875,486.14453125,673.068603515625C486.102783203125,672.912353515625,486.071533203125,672.80810546875,486.05078125,672.756103515625C485.61328125,673.193603515625,485.1392822265625,673.521728515625,484.62890625,673.740478515625C484.118408203125,673.94873046875,483.5767822265625,674.052978515625,483.00390625,674.052978515625C481.993408203125,674.052978515625,481.19140625,673.7821044921875,480.59765625,673.240478515625C480.0142822265625,672.6883544921875,479.72265625,671.990478515625,479.72265625,671.146728515625C479.72265625,670.584228515625,479.852783203125,670.08935546875,480.11328125,669.662353515625C480.384033203125,669.224853515625,480.759033203125,668.8914794921875,481.23828125,668.662353515625C481.7174072265625,668.4227294921875,482.41015625,668.21435546875,483.31640625,668.037353515625C484.53515625,667.818603515625,485.37890625,667.6102294921875,485.84765625,667.412353515625L485.84765625,667.146728515625C485.84765625,666.646728515625,485.72265625,666.29248046875,485.47265625,666.084228515625C485.2330322265625,665.865478515625,484.76953125,665.756103515625,484.08203125,665.756103515625C483.61328125,665.756103515625,483.2486572265625,665.849853515625,482.98828125,666.037353515625C482.727783203125,666.21435546875,482.51953125,666.5321044921875,482.36328125,666.990478515625ZM485.84765625,669.099853515625C485.5142822265625,669.21435546875,484.9830322265625,669.349853515625,484.25390625,669.506103515625C483.53515625,669.662353515625,483.06640625,669.8133544921875,482.84765625,669.959228515625C482.50390625,670.19873046875,482.33203125,670.506103515625,482.33203125,670.881103515625C482.33203125,671.24560546875,482.4674072265625,671.5633544921875,482.73828125,671.834228515625C483.009033203125,672.0946044921875,483.3580322265625,672.224853515625,483.78515625,672.224853515625C484.25390625,672.224853515625,484.7017822265625,672.068603515625,485.12890625,671.756103515625C485.44140625,671.5164794921875,485.649658203125,671.22998046875,485.75390625,670.896728515625C485.81640625,670.66748046875,485.84765625,670.240478515625,485.84765625,669.615478515625L485.84765625,669.099853515625ZM490.785888671875,673.834228515625L490.785888671875,660.240478515625L493.395263671875,660.240478515625L493.395263671875,673.834228515625L490.785888671875,673.834228515625ZM506.85546875,670.693603515625L509.46484375,671.131103515625C509.131591796875,672.08935546875,508.600341796875,672.818603515625,507.87109375,673.318603515625C507.15234375,673.80810546875,506.25146484375,674.052978515625,505.16796875,674.052978515625C503.459716796875,674.052978515625,502.194091796875,673.49560546875,501.3712158203125,672.381103515625C500.725341796875,671.4852294921875,500.4024658203125,670.349853515625,500.4024658203125,668.974853515625C500.4024658203125,667.349853515625,500.8243408203125,666.07373046875,501.6680908203125,665.146728515625C502.522216796875,664.2196044921875,503.60546875,663.756103515625,504.91796875,663.756103515625C506.37646484375,663.756103515625,507.52734375,664.240478515625,508.37109375,665.209228515625C509.225341796875,666.177978515625,509.63671875,667.662353515625,509.60546875,669.662353515625L503.07421875,669.662353515625C503.084716796875,670.43310546875,503.29296875,671.037353515625,503.69921875,671.474853515625C504.10546875,671.90185546875,504.60546875,672.115478515625,505.19921875,672.115478515625C505.60546875,672.115478515625,505.94921875,672.006103515625,506.23046875,671.787353515625C506.51171875,671.55810546875,506.72021484375,671.193603515625,506.85546875,670.693603515625ZM507.01171875,668.068603515625C506.990966796875,667.30810546875,506.79296875,666.7352294921875,506.41796875,666.349853515625C506.053466796875,665.9539794921875,505.60546875,665.756103515625,505.07421875,665.756103515625C504.50146484375,665.756103515625,504.03271484375,665.96435546875,503.66796875,666.381103515625C503.29296875,666.787353515625,503.11083984375,667.349853515625,503.12109375,668.068603515625L507.01171875,668.068603515625ZM520.4970703125,673.834228515625L517.8876953125,673.834228515625L517.8876953125,668.802978515625C517.8876953125,667.740478515625,517.830078125,667.052978515625,517.7158203125,666.740478515625C517.611328125,666.427978515625,517.4345703125,666.1883544921875,517.1845703125,666.021728515625C516.9345703125,665.8446044921875,516.63232421875,665.756103515625,516.2783203125,665.756103515625C515.81982421875,665.756103515625,515.408203125,665.881103515625,515.0439453125,666.131103515625C514.689453125,666.37060546875,514.44482421875,666.69873046875,514.3095703125,667.115478515625C514.1845703125,667.521728515625,514.1220703125,668.271728515625,514.1220703125,669.365478515625L514.1220703125,673.834228515625L511.5126953125,673.834228515625L511.5126953125,663.974853515625L513.9345703125,663.974853515625L513.9345703125,665.427978515625C514.798828125,664.3133544921875,515.88232421875,663.756103515625,517.1845703125,663.756103515625C517.75732421875,663.756103515625,518.283203125,663.8602294921875,518.7626953125,664.068603515625C519.24169921875,664.27685546875,519.60107421875,664.54248046875,519.8408203125,664.865478515625C520.080078125,665.1883544921875,520.2470703125,665.552978515625,520.3408203125,665.959228515625C520.44482421875,666.365478515625,520.4970703125,666.94873046875,520.4970703125,667.709228515625L520.4970703125,673.834228515625ZM527.43994140625,663.974853515625L527.43994140625,666.052978515625L525.65869140625,666.052978515625L525.65869140625,670.037353515625C525.65869140625,670.83935546875,525.67431640625,671.30810546875,525.70556640625,671.443603515625C525.7470703125,671.568603515625,525.8251953125,671.677978515625,525.93994140625,671.771728515625C526.06494140625,671.85498046875,526.2158203125,671.896728515625,526.39306640625,671.896728515625C526.63232421875,671.896728515625,526.9814453125,671.8133544921875,527.43994140625,671.646728515625L527.65869140625,673.662353515625C527.05419921875,673.9227294921875,526.36669921875,674.052978515625,525.59619140625,674.052978515625C525.12744140625,674.052978515625,524.70556640625,673.974853515625,524.33056640625,673.818603515625C523.95556640625,673.662353515625,523.67919921875,673.459228515625,523.50244140625,673.209228515625C523.3251953125,672.959228515625,523.2001953125,672.62060546875,523.12744140625,672.193603515625C523.0751953125,671.8914794921875,523.04931640625,671.27685546875,523.04931640625,670.349853515625L523.04931640625,666.052978515625L521.84619140625,666.052978515625L521.84619140625,663.974853515625L523.04931640625,663.974853515625L523.04931640625,662.021728515625L525.65869140625,660.506103515625L525.65869140625,663.974853515625L527.43994140625,663.974853515625ZM529.13671875,662.646728515625L529.13671875,660.240478515625L531.74609375,660.240478515625L531.74609375,662.646728515625L529.13671875,662.646728515625ZM529.13671875,673.834228515625L529.13671875,663.974853515625L531.74609375,663.974853515625L531.74609375,673.834228515625L529.13671875,673.834228515625ZM538.835693359375,663.974853515625L538.835693359375,666.052978515625L537.054443359375,666.052978515625L537.054443359375,670.037353515625C537.054443359375,670.83935546875,537.070068359375,671.30810546875,537.101318359375,671.443603515625C537.14306640625,671.568603515625,537.22119140625,671.677978515625,537.335693359375,671.771728515625C537.460693359375,671.85498046875,537.61181640625,671.896728515625,537.788818359375,671.896728515625C538.0283203125,671.896728515625,538.37744140625,671.8133544921875,538.835693359375,671.646728515625L539.054443359375,673.662353515625C538.4501953125,673.9227294921875,537.7626953125,674.052978515625,536.991943359375,674.052978515625C536.523193359375,674.052978515625,536.101318359375,673.974853515625,535.726318359375,673.818603515625C535.351318359375,673.662353515625,535.0751953125,673.459228515625,534.898193359375,673.209228515625C534.72119140625,672.959228515625,534.59619140625,672.62060546875,534.523193359375,672.193603515625C534.47119140625,671.8914794921875,534.445068359375,671.27685546875,534.445068359375,670.349853515625L534.445068359375,666.052978515625L533.241943359375,666.052978515625L533.241943359375,663.974853515625L534.445068359375,663.974853515625L534.445068359375,662.021728515625L537.054443359375,660.506103515625L537.054443359375,663.974853515625L538.835693359375,663.974853515625ZM540.53271484375,662.646728515625L540.53271484375,660.240478515625L543.14208984375,660.240478515625L543.14208984375,662.646728515625L540.53271484375,662.646728515625ZM540.53271484375,673.834228515625L540.53271484375,663.974853515625L543.14208984375,663.974853515625L543.14208984375,673.834228515625L540.53271484375,673.834228515625ZM551.419189453125,670.693603515625L554.028564453125,671.131103515625C553.6953125,672.08935546875,553.1640625,672.818603515625,552.434814453125,673.318603515625C551.716064453125,673.80810546875,550.81494140625,674.052978515625,549.731689453125,674.052978515625C548.0234375,674.052978515625,546.7578125,673.49560546875,545.934814453125,672.381103515625C545.2890625,671.4852294921875,544.966064453125,670.349853515625,544.966064453125,668.974853515625C544.966064453125,667.349853515625,545.387939453125,666.07373046875,546.231689453125,665.146728515625C547.0859375,664.2196044921875,548.169189453125,663.756103515625,549.481689453125,663.756103515625C550.93994140625,663.756103515625,552.091064453125,664.240478515625,552.934814453125,665.209228515625C553.7890625,666.177978515625,554.200439453125,667.662353515625,554.169189453125,669.662353515625L547.637939453125,669.662353515625C547.6484375,670.43310546875,547.856689453125,671.037353515625,548.262939453125,671.474853515625C548.669189453125,671.90185546875,549.169189453125,672.115478515625,549.762939453125,672.115478515625C550.169189453125,672.115478515625,550.512939453125,672.006103515625,550.794189453125,671.787353515625C551.075439453125,671.55810546875,551.28369140625,671.193603515625,551.419189453125,670.693603515625ZM551.575439453125,668.068603515625C551.5546875,667.30810546875,551.356689453125,666.7352294921875,550.981689453125,666.349853515625C550.6171875,665.9539794921875,550.169189453125,665.756103515625,549.637939453125,665.756103515625C549.06494140625,665.756103515625,548.59619140625,665.96435546875,548.231689453125,666.381103515625C547.856689453125,666.787353515625,547.67431640625,667.349853515625,547.684814453125,668.068603515625L551.575439453125,668.068603515625ZM555.185546875,671.021728515625L557.794921875,670.631103515625C557.90966796875,671.131103515625,558.133544921875,671.5164794921875,558.466796875,671.787353515625C558.810546875,672.0477294921875,559.289794921875,672.177978515625,559.904296875,672.177978515625C560.571044921875,672.177978515625,561.076171875,672.052978515625,561.419921875,671.802978515625C561.649169921875,671.6258544921875,561.763671875,671.3914794921875,561.763671875,671.099853515625C561.763671875,670.90185546875,561.701171875,670.740478515625,561.576171875,670.615478515625C561.451171875,670.490478515625,561.15966796875,670.3758544921875,560.701171875,670.271728515625C558.607421875,669.802978515625,557.274169921875,669.381103515625,556.701171875,669.006103515625C555.930419921875,668.474853515625,555.544921875,667.7352294921875,555.544921875,666.787353515625C555.544921875,665.93310546875,555.87841796875,665.21435546875,556.544921875,664.631103515625C557.22216796875,664.0477294921875,558.26904296875,663.756103515625,559.685546875,663.756103515625C561.039794921875,663.756103515625,562.039794921875,663.974853515625,562.685546875,664.412353515625C563.341796875,664.849853515625,563.794921875,665.5008544921875,564.044921875,666.365478515625L561.591796875,666.818603515625C561.48779296875,666.43310546875,561.28466796875,666.1414794921875,560.982421875,665.943603515625C560.69091796875,665.7352294921875,560.274169921875,665.631103515625,559.732421875,665.631103515625C559.044921875,665.631103515625,558.555419921875,665.72998046875,558.263671875,665.927978515625C558.06591796875,666.0633544921875,557.966796875,666.2352294921875,557.966796875,666.443603515625C557.966796875,666.631103515625,558.05029296875,666.79248046875,558.216796875,666.927978515625C558.45654296875,667.0946044921875,559.26904296875,667.33935546875,560.654296875,667.662353515625C562.039794921875,667.974853515625,563.008544921875,668.3602294921875,563.560546875,668.818603515625C564.11279296875,669.27685546875,564.388671875,669.9227294921875,564.388671875,670.756103515625C564.388671875,671.662353515625,564.008544921875,672.4383544921875,563.248046875,673.084228515625C562.498046875,673.72998046875,561.383544921875,674.052978515625,559.904296875,674.052978515625C558.560546875,674.052978515625,557.498046875,673.7821044921875,556.716796875,673.240478515625C555.935546875,672.69873046875,555.42529296875,671.959228515625,555.185546875,671.021728515625Z" stroke-linecap="square" stroke-miterlimit="10" style="fill: rgb(0, 0, 0); fill-opacity: 1;"/></g></g><g id="shape-14c59495-3289-806c-8008-573e65610931"><g class="fills" id="fills-14c59495-3289-806c-8008-573e65610931"><path d="M460.00439453125,12.00006103515625L460.00439453125,320.6298828125" fill="none" stroke-linecap="square" stroke-miterlimit="10" style="fill: none;"/></g></g><g id="shape-14c59495-3289-806c-8008-573e65610932"><g class="fills" id="fills-14c59495-3289-806c-8008-573e65610932"><path d="M460.00439453125,12.00006103515625L460.00439453125,320.6298828125" stroke-dasharray="3.0,9.0" fill="none" stroke-linejoin="round" stroke-linecap="butt" stroke-miterlimit="10" style="fill: none;"/></g><g stroke-dasharray="3.0,9.0" fill="none" stroke-linejoin="round" stroke-linecap="butt" stroke-miterlimit="10" id="strokes-7cfa18bd-02df-8097-8008-5c3ab29cb57c-14c59495-3289-806c-8008-573e65610932" class="strokes"><g class="stroke-shape"><path d="M460.00439453125,12.00006103515625L460.00439453125,320.6298828125" style="fill: none; stroke-width: 3; stroke: rgb(0, 0, 0);"/></g></g></g><g id="shape-14c59495-3289-806c-8008-5742ae80e4b9" rx="0" ry="0"><g id="shape-14c59495-3289-806c-8008-5742aa8532a2" rx="0" ry="0"><g id="shape-14c59495-3289-806c-8008-573e655c2cc2"><g class="fills" id="fills-14c59495-3289-806c-8008-573e655c2cc2"><path d="M499,133.7322998046875L499,133.7322998046875C499,111.7886962890625,516.78857421875,94,538.732177734375,94L538.732177734375,94C549.269775390625,94,559.3759765625,98.18603515625,566.8271484375,105.6373291015625C574.2783203125,113.088623046875,578.464599609375,123.194580078125,578.464599609375,133.7322998046875L578.464599609375,133.7322998046875C578.464599609375,155.67578125,560.67578125,173.464599609375,538.732177734375,173.464599609375L538.732177734375,173.464599609375C516.78857421875,173.464599609375,499,155.67578125,499,133.7322998046875L499,133.7322998046875" fill="none" stroke-linecap="square" stroke-miterlimit="10" style="fill: none;"/></g></g><g id="shape-14c59495-3289-806c-8008-573e655c5cc1"><g class="fills" id="fills-14c59495-3289-806c-8008-573e655c5cc1"><path d="M499,133.7322998046875L499,133.7322998046875C499,111.7886962890625,516.78857421875,94,538.732177734375,94L538.732177734375,94C549.269775390625,94,559.3759765625,98.18603515625,566.8271484375,105.6373291015625C574.2783203125,113.088623046875,578.464599609375,123.194580078125,578.464599609375,133.7322998046875L578.464599609375,133.7322998046875C578.464599609375,155.67578125,560.67578125,173.464599609375,538.732177734375,173.464599609375L538.732177734375,173.464599609375C516.78857421875,173.464599609375,499,155.67578125,499,133.7322998046875L499,133.7322998046875" fill="none" stroke-linecap="butt" stroke-miterlimit="10" stroke-linejoin="round" style="fill: none;"/></g><g fill="none" stroke-linecap="butt" stroke-miterlimit="10" stroke-linejoin="round" id="strokes-7cfa18bd-02df-8097-8008-5c3ab29d9bec-14c59495-3289-806c-8008-573e655c5cc1" class="strokes"><g class="inner-stroke-shape"><defs><clipPath id="inner-stroke-render-15-14c59495-3289-806c-8008-573e655c5cc1-0"><use href="#stroke-shape-render-15-14c59495-3289-806c-8008-573e655c5cc1-0"/></clipPath><path d="M499,133.7322998046875L499,133.7322998046875C499,111.7886962890625,516.78857421875,94,538.732177734375,94L538.732177734375,94C549.269775390625,94,559.3759765625,98.18603515625,566.8271484375,105.6373291015625C574.2783203125,113.088623046875,578.464599609375,123.194580078125,578.464599609375,133.7322998046875L578.464599609375,133.7322998046875C578.464599609375,155.67578125,560.67578125,173.464599609375,538.732177734375,173.464599609375L538.732177734375,173.464599609375C516.78857421875,173.464599609375,499,155.67578125,499,133.7322998046875L499,133.7322998046875" id="stroke-shape-render-15-14c59495-3289-806c-8008-573e655c5cc1-0" style="fill: none; stroke-width: 8; stroke: rgb(0, 0, 0);"/></defs><use href="#stroke-shape-render-15-14c59495-3289-806c-8008-573e655c5cc1-0" clip-path="url('#inner-stroke-render-15-14c59495-3289-806c-8008-573e655c5cc1-0')"/></g></g></g><g id="shape-14c59495-3289-806c-8008-573e655cb582"><g class="fills" id="fills-14c59495-3289-806c-8008-573e655cb582"><path d="M528.200927734375,145.4522705078125L537.060302734375,133.5147705078125L529.247802734375,122.5460205078125L532.857177734375,122.5460205078125L537.013427734375,128.4210205078125C537.8779296875,129.6397705078125,538.49267578125,130.5772705078125,538.857177734375,131.2335205078125C539.36767578125,130.400146484375,539.9716796875,129.5303955078125,540.669677734375,128.6241455078125L545.279052734375,122.5460205078125L548.575927734375,122.5460205078125L540.529052734375,133.3428955078125L549.200927734375,145.4522705078125L545.450927734375,145.4522705078125L539.685302734375,137.2803955078125C539.3623046875,136.8116455078125,539.029052734375,136.30126953125,538.685302734375,135.7491455078125C538.1748046875,136.58251953125,537.810302734375,137.1553955078125,537.591552734375,137.4678955078125L531.841552734375,145.4522705078125L528.200927734375,145.4522705078125Z" stroke-linecap="square" stroke-miterlimit="10" style="fill: rgb(0, 0, 0); fill-opacity: 1;"/></g></g></g><g id="shape-14c59495-3289-806c-8008-573e655cec70"><g class="fills" id="fills-14c59495-3289-806c-8008-573e655cec70"><path d="M588.2841796875,107.2418212890625L839.496826171875,107.2418212890625L839.496826171875,160.2181396484375L588.2841796875,160.2181396484375L588.2841796875,107.2418212890625" fill="none" stroke-linecap="square" stroke-miterlimit="10" style="fill: none;"/></g></g><g id="shape-14c59495-3289-806c-8008-573e655e13ff"><g class="fills" id="fills-14c59495-3289-806c-8008-573e655e13ff"><path d="M588.28466796875,173.0257568359375L832.8515625,173.0257568359375L832.8515625,226.002197265625L588.28466796875,226.002197265625L588.28466796875,173.0257568359375" fill="none" stroke-linecap="square" stroke-miterlimit="10" style="fill: none;"/></g></g><g id="shape-14c59495-3289-806c-8008-573ef5bc99a5"><g transform="matrix(1.000000, 0.000000, 0.000000, 1.000000, 0.000000, 0.000000)" class="text-container" x="598.2114486694336" y="121.32763671875" width="208" height="24" rx="0" ry="0"><defs><pattern patternUnits="objectBoundingBox" width="207.0833282470703" height="27" id="fill-0-render-19-0"><g><rect width="207.0833282470703" height="27" style="fill: rgb(0, 0, 0); fill-opacity: 1;"/></g></pattern></defs><g class="fills" id="fills-14c59495-3289-806c-8008-573ef5bc99a5"><text x="598.2114486694336" y="146.82763671875" dominant-baseline="ideographic" textLength="207.0833282470703" lengthAdjust="spacingAndGlyphs" style="text-transform: none; font-family: &quot;Open Sans&quot;; letter-spacing: normal; font-style: normal; font-weight: 700; white-space: pre; font-size: 20px; text-decoration: none; direction: ltr; fill: rgb(0, 0, 0); fill-opacity: 1;">Geo-political entities</text></g></g></g><g id="shape-d37d9436-7bcf-807a-8008-5c33b2920895"><g transform="matrix(1.000000, 0.000000, 0.000000, 1.000000, 0.000000, 0.000000)" class="text-container" x="595" y="174" width="254" height="48" rx="0" ry="0"><defs><pattern patternUnits="objectBoundingBox" width="253.96665954589844" height="51" id="fill-0-render-20-0"><g><rect width="253.96665954589844" height="51" style="fill: rgb(0, 0, 0); fill-opacity: 1;"/></g></pattern><pattern patternUnits="objectBoundingBox" width="253.96665954589844" height="51" id="fill-1-render-20-0"><g><rect width="253.96665954589844" height="51" style="fill: rgb(0, 0, 0); fill-opacity: 1;"/></g></pattern></defs><g class="fills" id="fills-d37d9436-7bcf-807a-8008-5c33b2920895"><text x="595" y="199.5" dominant-baseline="ideographic" textLength="253.96665954589844" lengthAdjust="spacingAndGlyphs" style="text-transform: none; font-family: &quot;Open Sans&quot;; letter-spacing: normal; font-style: normal; font-weight: 700; white-space: pre; font-size: 20px; text-decoration: none; direction: ltr; fill: rgb(0, 0, 0); fill-opacity: 1;">Trade flow (annual value)</text></g><defs><pattern patternUnits="objectBoundingBox" width="253.96665954589844" height="51" id="fill-0-render-20-1"><g><rect width="253.96665954589844" height="51" style="fill: rgb(0, 0, 0); fill-opacity: 1;"/></g></pattern><pattern patternUnits="objectBoundingBox" width="253.96665954589844" height="51" id="fill-1-render-20-1"><g><rect width="253.96665954589844" height="51" style="fill: rgb(0, 0, 0); fill-opacity: 1;"/></g></pattern></defs><g class="fills" id="fills-d37d9436-7bcf-807a-8008-5c33b2920895"><text x="595" y="223.5" dominant-baseline="ideographic" textLength="163.14999389648438" lengthAdjust="spacingAndGlyphs" style="text-transform: none; font-family: &quot;Open Sans&quot;; letter-spacing: normal; font-style: normal; font-weight: 700; white-space: pre; font-size: 20px; text-decoration: none; direction: ltr; fill: rgb(0, 0, 0); fill-opacity: 1;">as reported by X</text></g></g></g></g><g id="shape-d37d9436-7bcf-807a-8008-5c30e124de90"><g transform="matrix(1.000000, 0.000000, 0.000000, 1.000000, 0.000000, 0.000000)" class="text-container" x="115.75" y="82" width="171" height="46" rx="0" ry="0"><defs><pattern patternUnits="objectBoundingBox" width="170.14999389648438" height="48.30000305175781" id="fill-0-render-21-0"><g><rect width="170.14999389648438" height="48.30000305175781" style="fill: rgb(0, 0, 0); fill-opacity: 1;"/></g></pattern><pattern patternUnits="objectBoundingBox" width="170.14999389648438" height="48.30000305175781" id="fill-1-render-21-0"><g><rect width="170.14999389648438" height="48.30000305175781" style="fill: rgb(0, 0, 0); fill-opacity: 1;"/></g></pattern></defs><g class="fills" id="fills-d37d9436-7bcf-807a-8008-5c30e124de90"><text x="187.6666717529297" y="104.80000305175781" dominant-baseline="ideographic" textLength="26.316665649414062" lengthAdjust="spacingAndGlyphs" style="text-transform: none; font-family: &quot;Open Sans&quot;; letter-spacing: normal; font-style: italic; font-weight: 700; white-space: pre; font-size: 18px; text-decoration: none; direction: ltr; fill: rgb(0, 0, 0); fill-opacity: 1;">CIF</text></g><defs><pattern patternUnits="objectBoundingBox" width="170.14999389648438" height="48.30000305175781" id="fill-0-render-21-1"><g><rect width="170.14999389648438" height="48.30000305175781" style="fill: rgb(0, 0, 0); fill-opacity: 1;"/></g></pattern><pattern patternUnits="objectBoundingBox" width="170.14999389648438" height="48.30000305175781" id="fill-1-render-21-1"><g><rect width="170.14999389648438" height="48.30000305175781" style="fill: rgb(0, 0, 0); fill-opacity: 1;"/></g></pattern></defs><g class="fills" id="fills-d37d9436-7bcf-807a-8008-5c30e124de90"><text x="115.75" y="129.10000610351562" dominant-baseline="ideographic" textLength="170.14999389648438" lengthAdjust="spacingAndGlyphs" style="text-transform: none; font-family: &quot;Open Sans&quot;; letter-spacing: normal; font-style: normal; font-weight: 700; white-space: pre; font-size: 20px; text-decoration: none; direction: ltr; fill: rgb(0, 0, 0); fill-opacity: 1;">A imports from B</text></g></g></g><g id="shape-d37d9436-7bcf-807a-8008-5c31e7d0ba60"><g transform="matrix(1.000000, 0.000000, 0.000000, 1.000000, 0.000000, 0.000000)" class="text-container" x="129.25" y="200" width="141" height="46" rx="0" ry="0"><defs><pattern patternUnits="objectBoundingBox" width="140.01666259765625" height="48.30000305175781" id="fill-0-render-22-0"><g><rect width="140.01666259765625" height="48.30000305175781" style="fill: rgb(0, 0, 0); fill-opacity: 1;"/></g></pattern><pattern patternUnits="objectBoundingBox" width="140.01666259765625" height="48.30000305175781" id="fill-1-render-22-0"><g><rect width="140.01666259765625" height="48.30000305175781" style="fill: rgb(0, 0, 0); fill-opacity: 1;"/></g></pattern></defs><g class="fills" id="fills-d37d9436-7bcf-807a-8008-5c31e7d0ba60"><text x="129.25" y="225.5" dominant-baseline="ideographic" textLength="140.01666259765625" lengthAdjust="spacingAndGlyphs" style="text-transform: none; font-family: &quot;Open Sans&quot;; letter-spacing: normal; font-style: normal; font-weight: 700; white-space: pre; font-size: 20px; text-decoration: none; direction: ltr; fill: rgb(0, 0, 0); fill-opacity: 1;">B exports to A</text></g><defs><pattern patternUnits="objectBoundingBox" width="140.01666259765625" height="48.30000305175781" id="fill-0-render-22-1"><g><rect width="140.01666259765625" height="48.30000305175781" style="fill: rgb(0, 0, 0); fill-opacity: 1;"/></g></pattern><pattern patternUnits="objectBoundingBox" width="140.01666259765625" height="48.30000305175781" id="fill-1-render-22-1"><g><rect width="140.01666259765625" height="48.30000305175781" style="fill: rgb(0, 0, 0); fill-opacity: 1;"/></g></pattern></defs><g class="fills" id="fills-d37d9436-7bcf-807a-8008-5c31e7d0ba60"><text x="182.3333282470703" y="246.8000030517578" dominant-baseline="ideographic" textLength="33.850006103515625" lengthAdjust="spacingAndGlyphs" style="text-transform: none; font-family: &quot;Open Sans&quot;; letter-spacing: normal; font-style: italic; font-weight: 700; white-space: pre; font-size: 18px; text-decoration: none; direction: ltr; fill: rgb(0, 0, 0); fill-opacity: 1;">FOB</text></g></g></g><g id="shape-d37d9436-7bcf-807a-8008-5c32f5a2dcfd"><g transform="matrix(1.000000, 0.000000, 0.000000, 1.000000, 0.000000, 0.000000)" class="text-container" x="596" y="227" width="252" height="44" rx="0" ry="0"><defs><pattern patternUnits="objectBoundingBox" width="251.64999389648438" height="45.59999084472656" id="fill-0-render-23-0"><g><rect width="251.64999389648438" height="45.59999084472656" style="fill: rgb(0, 0, 0); fill-opacity: 1;"/></g></pattern><pattern patternUnits="objectBoundingBox" width="251.64999389648438" height="45.59999084472656" id="fill-1-render-23-0"><g><rect width="251.64999389648438" height="45.59999084472656" style="fill: rgb(0, 0, 0); fill-opacity: 1;"/></g></pattern></defs><g class="fills" id="fills-d37d9436-7bcf-807a-8008-5c32f5a2dcfd"><text x="596" y="249.8000030517578" dominant-baseline="ideographic" textLength="174.28334045410156" lengthAdjust="spacingAndGlyphs" style="text-transform: none; font-family: &quot;Open Sans&quot;; letter-spacing: normal; font-style: italic; font-weight: 700; white-space: pre; font-size: 18px; text-decoration: none; direction: ltr; fill: rgb(0, 0, 0); fill-opacity: 1;">FOB : Free On Board </text></g><defs><pattern patternUnits="objectBoundingBox" width="251.64999389648438" height="45.59999084472656" id="fill-0-render-23-1"><g><rect width="251.64999389648438" height="45.59999084472656" style="fill: rgb(0, 0, 0); fill-opacity: 1;"/></g></pattern><pattern patternUnits="objectBoundingBox" width="251.64999389648438" height="45.59999084472656" id="fill-1-render-23-1"><g><rect width="251.64999389648438" height="45.59999084472656" style="fill: rgb(0, 0, 0); fill-opacity: 1;"/></g></pattern></defs><g class="fills" id="fills-d37d9436-7bcf-807a-8008-5c32f5a2dcfd"><text x="596" y="271.3999938964844" dominant-baseline="ideographic" textLength="251.64999389648438" lengthAdjust="spacingAndGlyphs" style="text-transform: none; font-family: &quot;Open Sans&quot;; letter-spacing: normal; font-style: italic; font-weight: 700; white-space: pre; font-size: 18px; text-decoration: none; direction: ltr; fill: rgb(0, 0, 0); fill-opacity: 1;">CIF :  Cost, Insurance, Freight </text></g></g></g><g id="shape-d37d9436-7bcf-807a-8008-5c348ca6a2db"><g class="fills" id="fills-d37d9436-7bcf-807a-8008-5c348ca6a2db"><path d="M321,133C321,133,283.8416748046875,80.37164306640625,194,79C109.175048828125,77.7049560546875,69,128,69,128"/></g><g id="strokes-7cfa18bd-02df-8097-8008-5c3ab2a2fcb9-d37d9436-7bcf-807a-8008-5c348ca6a2db" class="strokes"><g class="stroke-shape"><defs><marker refX="2" fill-opacity="1" orient="auto-start-reverse" id="marker-render-24-triangle-arrow" viewBox="0 0 3 6" fill="#000000" refY="3" markerWidth="8.5" markerHeight="8.5"><path d="M 0 0 L 3 3 L 0 6 z"/></marker></defs><path d="M321,133C321,133,283.8416748046875,80.37164306640625,194,79C109.175048828125,77.7049560546875,69,128,69,128" style="fill: none; stroke-width: 3; stroke: rgb(0, 0, 0); stroke-opacity: 1; marker-end: url(&quot;#marker-render-24-triangle-arrow&quot;);"/></g></g></g><g id="shape-d37d9436-7bcf-807a-8008-5c36bda2d768"><g class="fills" id="fills-d37d9436-7bcf-807a-8008-5c36bda2d768"><path d="M44,204.00006103515625C44,204.00006103515625,95.4664306640625,265.33740234375,196,265.00006103515625C294.13330078125,264.6707763671875,336,208.00006103515625,336,208.00006103515625"/></g><g id="strokes-7cfa18bd-02df-8097-8008-5c3ab2a30459-d37d9436-7bcf-807a-8008-5c36bda2d768" class="strokes"><g class="stroke-shape"><defs><marker refX="2" fill-opacity="1" orient="auto-start-reverse" id="marker-render-25-triangle-arrow" viewBox="0 0 3 6" fill="#000000" refY="3" markerWidth="8.5" markerHeight="8.5"><path d="M 0 0 L 3 3 L 0 6 z"/></marker></defs><path d="M44,204.00006103515625C44,204.00006103515625,95.4664306640625,265.33740234375,196,265.00006103515625C294.13330078125,264.6707763671875,336,208.00006103515625,336,208.00006103515625" style="fill: none; stroke-width: 3; stroke: rgb(0, 0, 0); stroke-opacity: 1; stroke-dasharray: 13, 13; marker-end: url(&quot;#marker-render-25-triangle-arrow&quot;);"/></g></g></g><g id="shape-d37d9436-7bcf-807a-8008-5c36bda31f4b"><g class="fills" id="fills-d37d9436-7bcf-807a-8008-5c36bda31f4b"><path d="M321,198.00006103515625C321,198.00006103515625,283.841796875,250.62841796875,194,252.00006103515625C109.175048828125,253.29510498046875,69,203.00006103515625,69,203.00006103515625"/></g><g id="strokes-7cfa18bd-02df-8097-8008-5c3ab2a36441-d37d9436-7bcf-807a-8008-5c36bda31f4b" class="strokes"><g class="stroke-shape"><defs><marker refX="2" fill-opacity="1" orient="auto-start-reverse" id="marker-render-26-triangle-arrow" viewBox="0 0 3 6" fill="#000000" refY="3" markerWidth="8.5" markerHeight="8.5"><path d="M 0 0 L 3 3 L 0 6 z"/></marker></defs><path d="M321,198.00006103515625C321,198.00006103515625,283.841796875,250.62841796875,194,252.00006103515625C109.175048828125,253.29510498046875,69,203.00006103515625,69,203.00006103515625" style="fill: none; stroke-width: 3; stroke: rgb(0, 0, 0); stroke-opacity: 1; stroke-dasharray: 13, 13; marker-end: url(&quot;#marker-render-26-triangle-arrow&quot;);"/></g></g></g><g id="shape-d37d9436-7bcf-807a-8008-5c355cd17ea7"><g transform="matrix(1.000000, 0.000000, 0.000000, 1.000000, 0.000000, 0.000000)" class="text-container" x="126.75" y="17" width="146" height="46" rx="0" ry="0"><defs><pattern patternUnits="objectBoundingBox" width="145.21665954589844" height="48.30000305175781" id="fill-0-render-27-0"><g><rect width="145.21665954589844" height="48.30000305175781" style="fill: rgb(0, 0, 0); fill-opacity: 1;"/></g></pattern><pattern patternUnits="objectBoundingBox" width="145.21665954589844" height="48.30000305175781" id="fill-1-render-27-0"><g><rect width="145.21665954589844" height="48.30000305175781" style="fill: rgb(0, 0, 0); fill-opacity: 1;"/></g></pattern></defs><g class="fills" id="fills-d37d9436-7bcf-807a-8008-5c355cd17ea7"><text x="126.75" y="42.5" dominant-baseline="ideographic" textLength="145.21665954589844" lengthAdjust="spacingAndGlyphs" style="text-transform: none; font-family: &quot;Open Sans&quot;; letter-spacing: normal; font-style: normal; font-weight: 700; white-space: pre; font-size: 20px; text-decoration: none; direction: ltr; fill: rgb(0, 0, 0); fill-opacity: 1;">A exports to B </text></g><defs><pattern patternUnits="objectBoundingBox" width="145.21665954589844" height="48.30000305175781" id="fill-0-render-27-1"><g><rect width="145.21665954589844" height="48.30000305175781" style="fill: rgb(0, 0, 0); fill-opacity: 1;"/></g></pattern><pattern patternUnits="objectBoundingBox" width="145.21665954589844" height="48.30000305175781" id="fill-1-render-27-1"><g><rect width="145.21665954589844" height="48.30000305175781" style="fill: rgb(0, 0, 0); fill-opacity: 1;"/></g></pattern></defs><g class="fills" id="fills-d37d9436-7bcf-807a-8008-5c355cd17ea7"><text x="182.43333435058594" y="63.80000305175781" dominant-baseline="ideographic" textLength="33.850006103515625" lengthAdjust="spacingAndGlyphs" style="text-transform: none; font-family: &quot;Open Sans&quot;; letter-spacing: normal; font-style: italic; font-weight: 700; white-space: pre; font-size: 18px; text-decoration: none; direction: ltr; fill: rgb(0, 0, 0); fill-opacity: 1;">FOB</text></g></g></g><g id="shape-d37d9436-7bcf-807a-8008-5c37920d5dbc"><g transform="matrix(1.000000, 0.000000, 0.000000, 1.000000, 0.000000, 0.000000)" class="text-container" x="118.25" y="270" width="171" height="46" rx="0" ry="0"><defs><pattern patternUnits="objectBoundingBox" width="170.14999389648438" height="48.30000305175781" id="fill-0-render-28-0"><g><rect width="170.14999389648438" height="48.30000305175781" style="fill: rgb(0, 0, 0); fill-opacity: 1;"/></g></pattern><pattern patternUnits="objectBoundingBox" width="170.14999389648438" height="48.30000305175781" id="fill-1-render-28-0"><g><rect width="170.14999389648438" height="48.30000305175781" style="fill: rgb(0, 0, 0); fill-opacity: 1;"/></g></pattern></defs><g class="fills" id="fills-d37d9436-7bcf-807a-8008-5c37920d5dbc"><text x="118.25" y="295.5" dominant-baseline="ideographic" textLength="170.14999389648438" lengthAdjust="spacingAndGlyphs" style="text-transform: none; font-family: &quot;Open Sans&quot;; letter-spacing: normal; font-style: normal; font-weight: 700; white-space: pre; font-size: 20px; text-decoration: none; direction: ltr; fill: rgb(0, 0, 0); fill-opacity: 1;">B imports from A</text></g><defs><pattern patternUnits="objectBoundingBox" width="170.14999389648438" height="48.30000305175781" id="fill-0-render-28-1"><g><rect width="170.14999389648438" height="48.30000305175781" style="fill: rgb(0, 0, 0); fill-opacity: 1;"/></g></pattern><pattern patternUnits="objectBoundingBox" width="170.14999389648438" height="48.30000305175781" id="fill-1-render-28-1"><g><rect width="170.14999389648438" height="48.30000305175781" style="fill: rgb(0, 0, 0); fill-opacity: 1;"/></g></pattern></defs><g class="fills" id="fills-d37d9436-7bcf-807a-8008-5c37920d5dbc"><text x="190.1666717529297" y="316.8000030517578" dominant-baseline="ideographic" textLength="26.316665649414062" lengthAdjust="spacingAndGlyphs" style="text-transform: none; font-family: &quot;Open Sans&quot;; letter-spacing: normal; font-style: italic; font-weight: 700; white-space: pre; font-size: 18px; text-decoration: none; direction: ltr; fill: rgb(0, 0, 0); fill-opacity: 1;">CIF</text></g></g></g><g id="shape-d37d9436-7bcf-807a-8008-5c38203ea4be"><g class="fills" id="fills-d37d9436-7bcf-807a-8008-5c38203ea4be"><ellipse cx="341.9999999999999" cy="165" rx="39.999999999999886" ry="40" transform="matrix(1.000000, 0.000000, 0.000000, 1.000000, 0.000000, 0.000000)"/></g><g id="strokes-7cfa18bd-02df-8097-8008-5c3ab2a48e1b-d37d9436-7bcf-807a-8008-5c38203ea4be" class="strokes"><g class="inner-stroke-shape" transform="matrix(1.000000, 0.000000, 0.000000, 1.000000, 0.000000, 0.000000)"><defs><clipPath id="inner-stroke-render-29-d37d9436-7bcf-807a-8008-5c38203ea4be-0"><use href="#stroke-shape-render-29-d37d9436-7bcf-807a-8008-5c38203ea4be-0"/></clipPath><ellipse cx="341.9999999999999" cy="165" rx="39.999999999999886" ry="40" id="stroke-shape-render-29-d37d9436-7bcf-807a-8008-5c38203ea4be-0" style="fill: none; stroke-width: 6; stroke: rgb(0, 0, 0); stroke-opacity: 1; stroke-dasharray: 13, 13;"/></defs><use href="#stroke-shape-render-29-d37d9436-7bcf-807a-8008-5c38203ea4be-0" clip-path="url('#inner-stroke-render-29-d37d9436-7bcf-807a-8008-5c38203ea4be-0')"/></g></g></g><g id="shape-d37d9436-7bcf-807a-8008-5c38715ee819"><g class="fills" id="fills-d37d9436-7bcf-807a-8008-5c38715ee819"><path d="M538,172L538,272.31951904296875"/></g><g id="strokes-7cfa18bd-02df-8097-8008-5c3ab2a4f9fe-d37d9436-7bcf-807a-8008-5c38715ee819" class="strokes"><g class="stroke-shape"><defs><marker refX="2" fill-opacity="1" orient="auto-start-reverse" id="marker-render-30-triangle-arrow" viewBox="0 0 3 6" fill="#000000" refY="3" markerWidth="8.5" markerHeight="8.5"><path d="M 0 0 L 3 3 L 0 6 z"/></marker></defs><path d="M538,172L538,272.31951904296875" style="fill: none; stroke-width: 3; stroke: rgb(0, 0, 0); stroke-opacity: 1; marker-end: url(&quot;#marker-render-30-triangle-arrow&quot;);"/></g></g></g></g></g></g></g></g></g></svg>